# File generated by ImageToStl.com - Free Image and 3D model conversion tools

o obj1
v 160 11.54700565 5.77350283
v 160 8.66025448 0.77350301
v 10 11.54700565 5.77350283
v 10 8.66025448 0.77350301
v 160 8.66025448 10.77350235
v 10 8.66025448 10.77350235
v 160 2.88675141 10.77350235
v 10 2.88675141 10.77350235
v 160 0 5.77350283
v 10 0 5.77350283
v 160 2.88675141 0.77350301
v 10 2.88675141 0.77350301
v 10 10.68980885 2.74641347
v 10 11.13067245 3.62081504
v 10 10.10751152 1.95909548
v 10 9.40053272 1.28151155
v 10 11.54180336 5.52846861
v 10 11.41742039 4.5571456
v 10 9.00651932 10.55690575
v 10 11.50024223 6.50684071
v 10 9.76841354 9.9417181
v 10 10.41538239 9.20661926
v 10 11.29393387 7.4641161
v 10 10.92881298 8.37275505
v 10 3.39539003 11.03448296
v 10 8.1516161 11.03448296
v 10 7.22829914 11.3607111
v 10 6.26313019 11.52620697
v 10 5.28387547 11.52620697
v 10 4.31870699 11.3607111
v 10 1.77859187 9.9417181
v 10 1.13162303 9.20661926
v 10 0.61819285 8.37275505
v 10 0.25307155 7.4641161
v 10 0.0467631 6.50684071
v 10 2.54048681 10.55690575
v 10 0.12958515 4.5571456
v 10 0.41633284 3.62081504
v 10 0.85719723 2.74641347
v 10 1.43949413 1.95909548
v 10 2.14647293 1.28151155
v 10 0.00520237 5.52846861
v 10 8.58921051 0.7331534
v 10 2.9577949 0.7331534
v 10 3.85011935 0.32979763
v 10 4.79777622 0.08304697
v 10 5.77350283 0
v 10 7.69688654 0.32979763
v 10 6.74922943 0.08304697
v 0 5.77350283 5.77350283
vn 0 0.86603 -0.5
vn 0 0.86603 0.5
vn 0 0.86603 0.5
vn 0 -0 1
vn 0 -0.86603 0.5
vn 0 -0.86603 0.5
vn -0 -0.86603 -0.5
vn -0 -0.86603 -0.5
vn -0 -0 -1
vn 1 0 0
vn -0.49865 0.21842 -0.83884
vn -0.49865 0.35704 -0.78986
vn -0.49999 0.4277 -0.75305
vn -0.49865 0.59978 -0.6258
vn -0.49865 0.69691 -0.51543
vn -0.49865 0.77399 -0.39024
vn -0.49865 0.82881 -0.25382
vn -0.49865 0.85978 -0.1101
vn -0.49992 0.86588 -0.01838
vn -0.49865 0.84735 0.18262
vn -0.49865 0.8043 0.32319
vn -0.49865 0.73811 0.45447
vn -0.49865 0.65069 0.57268
vn -0.49865 0.54454 0.67441
vn -0.49977 0.45934 0.73433
vn -0.49865 0.28877 0.81729
vn -0.49865 0.14649 0.85434
vn -0.49865 0 0.86681
vn -0.49865 -0.14649 0.85434
vn -0.49865 -0.28877 0.81729
vn -0.49954 -0.39547 0.77075
vn -0.49865 -0.54454 0.67441
vn -0.49865 -0.65069 0.57268
vn -0.49865 -0.73811 0.45447
vn -0.49865 -0.8043 0.32319
vn -0.49865 -0.84735 0.18262
vn -0.49924 -0.86471 0.05514
vn -0.49865 -0.85978 -0.1101
vn -0.49865 -0.82881 -0.25382
vn -0.49865 -0.77399 -0.39024
vn -0.49865 -0.69691 -0.51543
vn -0.49865 -0.59978 -0.6258
vn -0.49886 -0.49039 -0.7146
vn -0.49865 -0.35704 -0.78986
vn -0.49865 -0.21842 -0.83884
vn -0.49865 -0.07351 -0.86368
vn -0.49865 0.07351 -0.86368
vn -0.49999 -0.4277 -0.75305
vn -0.49992 -0.86588 -0.01838
vn -0.49977 -0.45934 0.73433
vn -0.49954 0.39547 0.77075
vn -0.49924 0.86471 0.05514
vn -0.49886 0.49039 -0.7146
f 1//1 2//1 3//1
f 3//1 2//1 4//1
f 5//2 1//2 6//2
f 6//3 1//3 3//3
f 7//4 5//4 8//4
f 8//4 5//4 6//4
f 9//5 7//5 10//5
f 10//6 7//6 8//6
f 11//7 9//7 12//7
f 12//8 9//8 10//8
f 2//9 11//9 4//9
f 4//9 11//9 12//9
f 1//10 5//10 2//10
f 2//10 5//10 7//10
f 2//10 7//10 11//10
f 11//10 7//10 9//10
f 13//10 14//10 15//10
f 15//10 14//10 16//10
f 3//10 4//10 17//10
f 17//10 4//10 16//10
f 17//10 16//10 18//10
f 18//10 16//10 14//10
f 6//10 3//10 19//10
f 19//10 3//10 20//10
f 19//10 20//10 21//10
f 21//10 20//10 22//10
f 22//10 20//10 23//10
f 22//10 23//10 24//10
f 25//10 8//10 26//10
f 26//10 8//10 6//10
f 27//10 28//10 29//10
f 27//10 29//10 26//10
f 26//10 29//10 30//10
f 26//10 30//10 25//10
f 31//10 32//10 33//10
f 33//10 34//10 31//10
f 31//10 34//10 35//10
f 31//10 35//10 36//10
f 36//10 35//10 10//10
f 36//10 10//10 8//10
f 37//10 38//10 39//10
f 39//10 40//10 37//10
f 37//10 40//10 41//10
f 37//10 41//10 42//10
f 42//10 41//10 12//10
f 42//10 12//10 10//10
f 4//10 12//10 43//10
f 43//10 12//10 44//10
f 43//10 44//10 45//10
f 45//10 46//10 43//10
f 43//10 46//10 47//10
f 43//10 47//10 48//10
f 48//10 47//10 49//10
f 48//11 49//11 50//11
f 48//12 50//12 43//12
f 4//13 43//13 50//13
f 15//14 16//14 50//14
f 15//15 50//15 13//15
f 14//16 13//16 50//16
f 18//17 14//17 50//17
f 17//18 18//18 50//18
f 3//19 17//19 50//19
f 23//20 20//20 50//20
f 23//21 50//21 24//21
f 22//22 24//22 50//22
f 21//23 22//23 50//23
f 19//24 21//24 50//24
f 6//25 19//25 50//25
f 27//26 26//26 50//26
f 27//27 50//27 28//27
f 29//28 28//28 50//28
f 30//29 29//29 50//29
f 25//30 30//30 50//30
f 8//31 25//31 50//31
f 31//32 36//32 50//32
f 31//33 50//33 32//33
f 33//34 32//34 50//34
f 34//35 33//35 50//35
f 35//36 34//36 50//36
f 10//37 35//37 50//37
f 37//38 42//38 50//38
f 37//39 50//39 38//39
f 39//40 38//40 50//40
f 40//41 39//41 50//41
f 41//42 40//42 50//42
f 12//43 41//43 50//43
f 45//44 44//44 50//44
f 45//45 50//45 46//45
f 47//46 46//46 50//46
f 49//47 47//47 50//47
f 44//48 12//48 50//48
f 42//49 10//49 50//49
f 36//50 8//50 50//50
f 26//51 6//51 50//51
f 20//52 3//52 50//52
f 16//53 4//53 50//53
# Vertices: 50, normals: 53, texture coordinates: 0, faces: 96

